# xmcd CD database file
#
# Track frame offsets:
#	150
#	37234
#	67514
#	98215
#	127950
#	148642
#	167745
#	200012
#	225570
#
# Disc length: 3492 seconds
#
# Revision: 0
# Processed by: cddbd v1.5PL3 Copyright (c) Steve Scherf et al.
# Submitted via: CDex 1.51
#
DISCID=770da209
DTITLE=Dan Gibson - Solitudes - Piano Cove
DYEAR=2000
DGENRE=New Age
TTITLE0=Glistening Sands
TTITLE1=Beach-Combing
TTITLE2=Solace
TTITLE3=Contemplation
TTITLE4=Tidal Pools
TTITLE5=A Peaceful Path
TTITLE6=Voices Of The Cove
TTITLE7=Drawn To The Sea
TTITLE8=Majestic Grace
EXTD=YEAR: 2000
EXTT0=
EXTT1=
EXTT2=
EXTT3=
EXTT4=
EXTT5=
EXTT6=
EXTT7=
EXTT8=
PLAYORDER=
